<?xml version="1.0" encoding="UTF-8" standalone="no"?>
<!-- Created with Inkscape (http://www.inkscape.org/) -->

<svg
   xmlns:dc="http://purl.org/dc/elements/1.1/"
   xmlns:cc="http://creativecommons.org/ns#"
   xmlns:rdf="http://www.w3.org/1999/02/22-rdf-syntax-ns#"
   xmlns:svg="http://www.w3.org/2000/svg"
   xmlns="http://www.w3.org/2000/svg"
   xmlns:sodipodi="http://sodipodi.sourceforge.net/DTD/sodipodi-0.dtd"
   xmlns:inkscape="http://www.inkscape.org/namespaces/inkscape"
   width="200"
   height="266"
   viewBox="0 0 199.99999 266"
   id="svg2"
   version="1.1"
   inkscape:version="0.91 r13725"
   sodipodi:docname="2.svg"
   inkscape:export-filename="D:\Projekty\Optio\optio.web\app\photos\employees\2.png"
   inkscape:export-xdpi="90"
   inkscape:export-ydpi="90">
  <defs
     id="defs4">
    <linearGradient
       id="linearGradient5740"
       spreadMethod="pad"
       gradientTransform="matrix(21.37764,0,0,-21.37764,141.3663,520.23187)"
       gradientUnits="userSpaceOnUse"
       y2="0"
       x2="1"
       y1="0"
       x1="0">
      <stop
         id="stop5742"
         offset="0"
         style="stop-opacity:1;stop-color:#904f22" />
      <stop
         id="stop5744"
         offset="0.442211"
         style="stop-opacity:1;stop-color:#3a1e0b" />
      <stop
         id="stop5746"
         offset="1"
         style="stop-opacity:1;stop-color:#3a1e0b" />
    </linearGradient>
    <linearGradient
       id="linearGradient5718"
       spreadMethod="pad"
       gradientTransform="matrix(-20.333567,0,0,20.333567,166.18524,542.53357)"
       gradientUnits="userSpaceOnUse"
       y2="0"
       x2="1"
       y1="0"
       x1="0">
      <stop
         id="stop5720"
         offset="0"
         style="stop-opacity:1;stop-color:#3a1e0b" />
      <stop
         id="stop5722"
         offset="0.557789"
         style="stop-opacity:1;stop-color:#3a1e0b" />
      <stop
         id="stop5724"
         offset="1"
         style="stop-opacity:1;stop-color:#904f22" />
    </linearGradient>
    <linearGradient
       id="linearGradient5696"
       spreadMethod="pad"
       gradientTransform="matrix(26.013477,0,0,-26.013477,140.68192,555.2356)"
       gradientUnits="userSpaceOnUse"
       y2="0"
       x2="1"
       y1="0"
       x1="0">
      <stop
         id="stop5698"
         offset="0"
         style="stop-opacity:1;stop-color:#904f22" />
      <stop
         id="stop5700"
         offset="0.442211"
         style="stop-opacity:1;stop-color:#3a1e0b" />
      <stop
         id="stop5702"
         offset="1"
         style="stop-opacity:1;stop-color:#3a1e0b" />
    </linearGradient>
    <linearGradient
       id="linearGradient5674"
       spreadMethod="pad"
       gradientTransform="matrix(0,-77.370125,-77.370125,0,127.37279,680.07098)"
       gradientUnits="userSpaceOnUse"
       y2="0"
       x2="1"
       y1="0"
       x1="0">
      <stop
         id="stop5676"
         offset="0"
         style="stop-opacity:1;stop-color:#3a1e0b" />
      <stop
         id="stop5678"
         offset="0.748744"
         style="stop-opacity:1;stop-color:#3a1e0b" />
      <stop
         id="stop5680"
         offset="1"
         style="stop-opacity:1;stop-color:#904f22" />
    </linearGradient>
    <clipPath
       id="clipPath5598"
       clipPathUnits="userSpaceOnUse">
      <path
         inkscape:connector-curvature="0"
         id="path5600"
         d="M 0,800 800,800 800,0 0,0 0,800 Z" />
    </clipPath>
    <radialGradient
       id="radialGradient5584"
       spreadMethod="pad"
       gradientTransform="matrix(44.423039,0,0,-44.423039,107.82029,605.97534)"
       gradientUnits="userSpaceOnUse"
       r="1"
       cy="0"
       cx="0"
       fy="0"
       fx="0">
      <stop
         id="stop5586"
         offset="0"
         style="stop-opacity:1;stop-color:#3a1e0b" />
      <stop
         id="stop5588"
         offset="0.748744"
         style="stop-opacity:1;stop-color:#3a1e0b" />
      <stop
         id="stop5590"
         offset="1"
         style="stop-opacity:1;stop-color:#904f22" />
    </radialGradient>
    <radialGradient
       id="radialGradient5562"
       spreadMethod="pad"
       gradientTransform="matrix(44.423042,0,0,-44.423042,147.75842,605.97534)"
       gradientUnits="userSpaceOnUse"
       r="1"
       cy="0"
       cx="0"
       fy="0"
       fx="0">
      <stop
         id="stop5564"
         offset="0"
         style="stop-opacity:1;stop-color:#3a1e0b" />
      <stop
         id="stop5566"
         offset="0.748744"
         style="stop-opacity:1;stop-color:#3a1e0b" />
      <stop
         id="stop5568"
         offset="1"
         style="stop-opacity:1;stop-color:#904f22" />
    </radialGradient>
  </defs>
  <sodipodi:namedview
     id="base"
     pagecolor="#a7da4e"
     bordercolor="#666666"
     borderopacity="1.0"
     inkscape:pageopacity="1"
     inkscape:pageshadow="2"
     inkscape:zoom="1.979899"
     inkscape:cx="-94.357831"
     inkscape:cy="120.37369"
     inkscape:document-units="px"
     inkscape:current-layer="layer1"
     showgrid="false"
     units="px"
     inkscape:window-width="1920"
     inkscape:window-height="1017"
     inkscape:window-x="-8"
     inkscape:window-y="-8"
     inkscape:window-maximized="1"
     showguides="true"
     inkscape:guide-bbox="true">
    <sodipodi:guide
       position="193.4442,28.284271"
       orientation="0,1"
       id="guide4316" />
    <sodipodi:guide
       position="14.647211,151.52288"
       orientation="1,0"
       id="guide4318" />
    <sodipodi:guide
       position="183.84775,118.69292"
       orientation="1,0"
       id="guide4320" />
    <sodipodi:guide
       position="132.83505,225.26402"
       orientation="0,1"
       id="guide4322" />
  </sodipodi:namedview>
  <metadata
     id="metadata7">
    <rdf:RDF>
      <cc:Work
         rdf:about="">
        <dc:format>image/svg+xml</dc:format>
        <dc:type
           rdf:resource="http://purl.org/dc/dcmitype/StillImage" />
        <dc:title />
      </cc:Work>
    </rdf:RDF>
  </metadata>
  <g
     inkscape:label="Layer 1"
     inkscape:groupmode="layer"
     id="layer1"
     transform="translate(0,-786.36216)">
    <g
       id="g5550"
       transform="matrix(1.25,0,0,-1.25,-59.715978,1655.117)">
      <g
         id="g5552">
        <g
           id="g5558">
          <g
             id="g5560">
            <path
               d="m 119.102,659.714 c 19.288,-33.119 20.081,-73.969 4.332,-109.506 l 0,0 c 16.922,-1.415 34.223,8.048 44.018,24.077 l 0,0 c 9.797,16.03 11.742,38.061 4.95,56.052 l 0,0 c -3.581,9.488 -9.47,17.851 -16.967,23.503 l 0,0 c -7.015,5.288 -15.391,8.043 -23.757,8.043 l 0,0 c -4.255,-0.001 -8.508,-0.714 -12.576,-2.169"
               style="fill:url(#radialGradient5562);stroke:none"
               id="path5570"
               inkscape:connector-curvature="0" />
          </g>
        </g>
      </g>
    </g>
    <g
       id="g5572"
       transform="matrix(1.25,0,0,-1.25,-59.715978,1655.117)">
      <g
         id="g5574">
        <g
           id="g5580">
          <g
             id="g5582">
            <path
               d="M 100.143,653.84 C 92.647,648.188 86.758,639.825 83.176,630.337 l 0,0 c -6.791,-17.991 -4.845,-40.022 4.95,-56.052 l 0,0 c 9.797,-16.029 27.097,-25.492 44.019,-24.077 l 0,0 c -15.75,35.537 -14.957,76.387 4.332,109.506 l 0,0 c -4.068,1.455 -8.322,2.168 -12.577,2.169 l 0,0 c -8.366,0 -16.742,-2.755 -23.757,-8.043"
               style="fill:url(#radialGradient5584);stroke:none"
               id="path5592"
               inkscape:connector-curvature="0" />
          </g>
        </g>
      </g>
    </g>
    <g
       id="g5594"
       transform="matrix(1.25,0,0,-1.25,-59.715978,1655.117)">
      <g
         id="g5596"
         clip-path="url(#clipPath5598)">
        <g
           id="g5602"
           transform="translate(182.4673,529.6068)">
          <path
             d="m 0,0 c -2.54,2.022 -5.469,3.506 -8.569,4.473 l -28.917,9.017 c -2.072,0.627 -3.223,2.533 -3.593,4.666 -1.044,6.033 -0.921,21.931 -0.893,24.521 0.002,0.203 -0.162,0.358 -0.366,0.358 l -25.514,0 c -0.203,0 -0.367,-0.155 -0.365,-0.358 0.024,-2.564 0.128,-18.17 -0.893,-24.521 -0.344,-2.138 -1.521,-4.039 -3.593,-4.666 L -101.7,4.448 c -2.668,-0.832 -5.229,-2.02 -7.48,-3.676 -11.761,-8.654 -12.099,-22.817 -12.587,-25.452 -0.042,-0.226 0.131,-0.429 0.36,-0.429 l 66.313,0 66.312,0 c 0.229,0 0.402,0.203 0.36,0.429 C 11.105,-22.122 10.932,-8.7 0,0"
             style="fill:#f9dac5;fill-opacity:1;fill-rule:nonzero;stroke:none"
             id="path5604"
             inkscape:connector-curvature="0" />
        </g>
        <g
           id="g5606"
           transform="translate(182.4673,529.6068)">
          <path
             d="m 0,0 c -2.54,2.022 -5.469,3.506 -8.569,4.473 l -28.917,9.017 c -2.072,0.627 -3.223,2.533 -3.593,4.666 -1.044,6.033 -0.921,21.931 -0.893,24.521 0.002,0.203 -0.162,0.358 -0.366,0.358 l -25.514,0 c -0.203,0 -0.367,-0.155 -0.365,-0.358 0.024,-2.564 0.128,-18.17 -0.893,-24.521 -0.344,-2.138 -1.521,-4.039 -3.593,-4.666 L -101.7,4.448 c -2.668,-0.832 -5.229,-2.02 -7.48,-3.676 -11.761,-8.654 -12.099,-22.817 -12.587,-25.452 -0.042,-0.226 0.131,-0.429 0.36,-0.429 l 66.313,0 66.312,0 c 0.229,0 0.402,0.203 0.36,0.429 C 11.105,-22.122 10.932,-8.7 0,0"
             style="fill:#f9dac5;fill-opacity:1;fill-rule:nonzero;stroke:none"
             id="path5608"
             inkscape:connector-curvature="0" />
        </g>
        <g
           id="g5610"
           transform="translate(182.4673,529.6069)">
          <path
             d="m 0,0 c -2.54,2.022 -5.469,3.506 -8.569,4.473 l -3.199,0.997 -25.718,8.02 c -2.072,0.627 -3.223,2.533 -3.593,4.666 -1.044,6.033 -0.921,21.931 -0.893,24.521 0.002,0.203 -0.162,0.358 -0.366,0.358 l -25.514,0 c -0.203,0 -0.367,-0.155 -0.365,-0.359 0.024,-2.563 0.128,-18.169 -0.893,-24.52 -0.344,-2.138 -1.521,-4.039 -3.593,-4.666 L -98.421,5.47 -101.7,4.448 c -2.668,-0.832 -5.229,-2.02 -7.48,-3.676 -11.761,-8.654 -12.099,-22.817 -12.587,-25.452 -0.042,-0.226 0.131,-0.429 0.36,-0.429 l 66.312,0 66.313,0 c 0.229,0 0.402,0.203 0.36,0.429 C 11.105,-22.122 10.932,-8.7 0,0"
             style="fill:#f9dac5;fill-opacity:1;fill-rule:nonzero;stroke:none"
             id="path5612"
             inkscape:connector-curvature="0" />
        </g>
        <g
           id="g5614"
           transform="translate(168.0557,536.3052)">
          <path
             d="m 0,0 c -0.975,-4.205 -4.724,-13.17 -19.123,-17.329 -0.156,-0.045 -0.312,-0.091 -0.466,-0.137 -12.973,-3.871 -26.749,-3.84 -39.732,-10e-4 -0.11,0.033 -0.221,0.065 -0.333,0.097 -14.444,4.173 -18.171,13.18 -19.131,17.367 l -4.056,-1.265 0,-30.54 43.453,0 43.453,0 0,30.54 L 0,0 Z"
             style="fill:#91b64d;fill-opacity:1;fill-rule:nonzero;stroke:none"
             id="path5616"
             inkscape:connector-curvature="0" />
        </g>
        <g
           id="g5618"
           transform="translate(140.5622,558.93)">
          <path
             d="m 0,0 c -0.122,5.43 -0.081,10.59 -0.067,11.969 0.002,0.204 -0.162,0.359 -0.365,0.359 l -25.515,0 c -0.203,0 -0.367,-0.156 -0.365,-0.359 0.013,-1.377 0.047,-6.518 -0.08,-11.964 C -17.859,-2.918 -8.533,-2.92 0,0"
             style="fill:#f2bc9e;fill-opacity:1;fill-rule:nonzero;stroke:none"
             id="path5620"
             inkscape:connector-curvature="0" />
        </g>
        <g
           id="g5622"
           transform="translate(96.6157,605.2804)">
          <path
             d="m 0,0 c 2.296,-5.451 0.988,-13.974 -2.921,-15.619 -3.908,-1.646 -8.938,4.208 -11.233,9.659 -2.295,5.452 -0.988,11.205 2.921,12.851 C -7.325,8.537 -2.295,5.451 0,0"
             style="fill:#f9dac5;fill-opacity:1;fill-rule:nonzero;stroke:none"
             id="path5624"
             inkscape:connector-curvature="0" />
        </g>
        <g
           id="g5626"
           transform="translate(158.1299,605.2804)">
          <path
             d="m 0,0 c -2.296,-5.451 -0.988,-13.974 2.921,-15.619 3.908,-1.646 8.938,4.208 11.233,9.659 2.295,5.452 0.988,11.205 -2.921,12.851 C 7.325,8.537 2.295,5.451 0,0"
             style="fill:#f9dac5;fill-opacity:1;fill-rule:nonzero;stroke:none"
             id="path5628"
             inkscape:connector-curvature="0" />
        </g>
        <g
           id="g5630"
           transform="translate(127.3728,658.114)">
          <path
             d="m 0,0 c -39.13,1.534 -39.697,-35.794 -39.113,-48.066 0.424,-8.909 3.924,-21.861 5.811,-28.29 1.084,-3.693 3.048,-7.101 5.862,-9.786 C -17.226,-95.888 0,-99.2 0,-99.2 c 0,0 17.226,3.312 27.44,13.058 2.814,2.685 4.778,6.093 5.862,9.786 1.887,6.429 5.387,19.381 5.811,28.29 C 39.697,-35.794 39.13,1.534 0,0"
             style="fill:#f9dac5;fill-opacity:1;fill-rule:nonzero;stroke:none"
             id="path5632"
             inkscape:connector-curvature="0" />
        </g>
        <g
           id="g5634"
           transform="translate(119.6062,580.1079)">
          <path
             d="m 0,0 c 1.339,-1.903 4.309,-3.23 7.767,-3.23 3.457,0 6.427,1.327 7.766,3.23"
             style="fill:none;stroke:#d6925f;stroke-width:1.38300002;stroke-linecap:round;stroke-linejoin:round;stroke-miterlimit:10;stroke-dasharray:none;stroke-opacity:1"
             id="path5636"
             inkscape:connector-curvature="0" />
        </g>
        <g
           id="g5638"
           transform="translate(106.9376,613.9186)">
          <path
             d="m 0,0 c 2.812,0 5.092,-2.686 5.092,-6 0,-3.314 -2.28,-6 -5.092,-6 -2.812,0 -5.092,2.686 -5.092,6 0,3.314 2.28,6 5.092,6"
             style="fill:#332113;fill-opacity:1;fill-rule:nonzero;stroke:none"
             id="path5640"
             inkscape:connector-curvature="0" />
        </g>
        <g
           id="g5642"
           transform="translate(146.2599,613.9186)">
          <path
             d="m 0,0 c 2.812,0 5.092,-2.686 5.092,-6 0,-3.314 -2.28,-6 -5.092,-6 -2.812,0 -5.092,2.686 -5.092,6 0,3.314 2.28,6 5.092,6"
             style="fill:#332113;fill-opacity:1;fill-rule:nonzero;stroke:none"
             id="path5644"
             inkscape:connector-curvature="0" />
        </g>
        <g
           id="g5646"
           transform="translate(106.9376,593.5125)">
          <path
             d="m 0,0 c 0,-3.13 -2.537,-5.667 -5.667,-5.667 -3.13,0 -5.667,2.537 -5.667,5.667 0,3.13 2.537,5.667 5.667,5.667 C -2.537,5.667 0,3.13 0,0"
             style="fill:#f7c9aa;fill-opacity:1;fill-rule:nonzero;stroke:none"
             id="path5648"
             inkscape:connector-curvature="0" />
        </g>
        <g
           id="g5650"
           transform="translate(157.0191,593.5125)">
          <path
             d="m 0,0 c 0,-3.13 -2.537,-5.667 -5.667,-5.667 -3.13,0 -5.667,2.537 -5.667,5.667 0,3.13 2.537,5.667 5.667,5.667 C -2.537,5.667 0,3.13 0,0"
             style="fill:#f7c9aa;fill-opacity:1;fill-rule:nonzero;stroke:none"
             id="path5652"
             inkscape:connector-curvature="0" />
        </g>
        <g
           id="g5654"
           transform="translate(147.4644,608.7849)">
          <path
             d="M 0,0 6.122,1.74 3.753,-1.471 0,0 Z"
             style="fill:#332113;fill-opacity:1;fill-rule:nonzero;stroke:none"
             id="path5656"
             inkscape:connector-curvature="0" />
        </g>
        <g
           id="g5658"
           transform="translate(105.7332,608.7849)">
          <path
             d="M 0,0 -6.122,1.74 -3.753,-1.471 0,0 Z"
             style="fill:#332113;fill-opacity:1;fill-rule:nonzero;stroke:none"
             id="path5660"
             inkscape:connector-curvature="0" />
        </g>
      </g>
    </g>
    <g
       id="g5662"
       transform="matrix(1.25,0,0,-1.25,-59.715978,1655.117)">
      <g
         id="g5664">
        <g
           id="g5670">
          <g
             id="g5672">
            <path
               d="M 127.372,661.245 C 113.487,665.962 73.961,646.307 84.808,613.98 l 0,0 c 0.391,0 4.705,-19.018 11.699,-25.436 l 0,0 c -3.74,4.398 -4.605,10.675 -3.664,16.37 l 0,0 c 0.7,4.237 2.283,8.246 4.05,12.175 l 0,0 c 14.783,7.47 25.834,26.154 30.479,30.322 l 0,0 c 4.411,-3.955 16.866,-20.995 29.926,-29.105 l 0,0 c 1.984,-4.32 3.832,-8.717 4.604,-13.392 l 0,0 c 0.941,-5.695 0.077,-11.972 -3.663,-16.37 l 0,0 c 6.996,6.42 11.313,25.436 11.698,25.436 l 0,0 c 9.771,29.121 -21.337,47.959 -37.753,47.961 l 0,0 c -1.808,0 -3.434,-0.228 -4.812,-0.696"
               style="fill:url(#linearGradient5674);stroke:none"
               id="path5682"
               inkscape:connector-curvature="0" />
          </g>
        </g>
      </g>
    </g>
    <g
       id="g5684"
       transform="matrix(1.25,0,0,-1.25,-59.715978,1655.117)">
      <g
         id="g5686">
        <g
           id="g5692">
          <g
             id="g5694">
            <path
               d="m 156.703,570.63 c -8.833,-1.171 -15.691,-8.757 -16.009,-17.661 l 0,0 c -0.145,-4.064 1.023,-7.842 3.111,-10.951 l 0,0 c 2.683,-3.995 8.751,-2.594 9.916,2.075 l 0,0 c 0.449,1.799 1.242,3.507 2.38,4.983 l 0,0 c 2.757,3.572 7.171,5.763 9.325,9.728 l 0,0 c 1.494,2.748 1.681,6.172 0.496,9.067 l 0,0 c -0.297,0.726 -0.678,1.413 -1.131,2.052 l 0,0 c -1.77,0.563 -3.653,0.871 -5.61,0.871 l 0,0 c -0.814,0 -1.641,-0.053 -2.478,-0.164"
               style="fill:url(#linearGradient5696);stroke:none"
               id="path5704"
               inkscape:connector-curvature="0" />
          </g>
        </g>
      </g>
    </g>
    <g
       id="g5706"
       transform="matrix(1.25,0,0,-1.25,-59.715978,1655.117)">
      <g
         id="g5708">
        <g
           id="g5714">
          <g
             id="g5716">
            <path
               d="m 155.993,551.243 c -0.351,-1.406 -0.97,-2.741 -1.86,-3.894 l 0,0 c -2.155,-2.793 -5.605,-4.506 -7.29,-7.605 l 0,0 c -1.167,-2.148 -1.314,-4.825 -0.387,-7.087 l 0,0 c 0.232,-0.567 0.531,-1.104 0.884,-1.604 l 0,0 c 1.96,-0.623 4.097,-0.847 6.322,-0.552 l 0,0 c 6.904,0.915 12.266,6.844 12.514,13.805 l 0,0 c 0.113,3.175 -0.799,6.129 -2.432,8.559 l 0,0 c -0.843,1.256 -2.114,1.83 -3.391,1.83 l 0,0 c -1.9,0 -3.815,-1.269 -4.36,-3.452"
               style="fill:url(#linearGradient5718);stroke:none"
               id="path5726"
               inkscape:connector-curvature="0" />
          </g>
        </g>
      </g>
    </g>
    <g
       id="g5728"
       transform="matrix(1.25,0,0,-1.25,-59.715978,1655.117)">
      <g
         id="g5730">
        <g
           id="g5736">
          <g
             id="g5738">
            <path
               d="m 148.257,531.661 c -2.165,-1.508 -3.553,-4.073 -3.633,-6.71 l 0,0 c -0.071,-2.308 0.796,-4.543 0.972,-6.846 l 0,0 c 0.283,-3.696 -1.349,-7.487 -4.229,-9.821 l 0,0 c 4.78,-1.855 10.466,-1.169 14.67,1.768 l 0,0 c 4.203,2.938 6.802,8.041 6.705,13.168 l 0,0 c -0.043,2.22 -0.581,4.471 -1.824,6.309 l 0,0 c -1.632,2.415 -4.567,3.681 -7.484,3.681 l 0,0 c -1.844,0 -3.681,-0.506 -5.177,-1.549"
               style="fill:url(#linearGradient5740);stroke:none"
               id="path5748"
               inkscape:connector-curvature="0" />
          </g>
        </g>
      </g>
    </g>
  </g>
</svg>
